<svg xmlns="http://www.w3.org/2000/svg" viewBox="0 0 100 104" width="100" height="104">
  <title>빨강 2</title>
  <defs>
    <filter id="soft" x="-10%" y="-10%" width="130%" height="130%"><feGaussianBlur stdDeviation="1.6"/></filter>
  </defs>
  <!-- 그림자 -->
  <rect x="4" y="6" width="95" height="95" rx="16" fill="#000" opacity="0.18" filter="url(#soft)"/>
  <!-- 타일 윗면 -->
  <rect x="1.5" y="1.5" width="95" height="95" rx="16" fill="#ffffff" stroke="#e6e6e6" stroke-width="1.2"/>
  <path d="M33.37 33.56L33.37 33.56Q33.37 30.84 35.12 29.09Q36.87 27.34 40.02 26.45Q43.17 25.56 47.44 25.56L47.44 25.56Q53.59 25.56 57.71 27.46Q61.83 29.37 63.93 32.63Q66.03 35.9 66.03 40.02L66.03 40.02Q66.03 44.14 63.74 47.99Q61.44 51.84 56.78 55.57L56.78 55.57L46.59 63.74L65.25 63.74Q65.72 64.51 66.15 65.87Q66.57 67.23 66.57 68.79L66.57 68.79Q66.57 71.59 65.33 72.79Q64.09 74 62.06 74L62.06 74L35.08 74Q33.37 72.83 32.4 70.97Q31.43 69.1 31.43 66.69L31.43 66.69Q31.43 64.05 32.55 62.22Q33.68 60.39 34.93 59.3L34.93 59.3L45.66 50.13Q49.7 46.71 51.18 44.61Q52.65 42.51 52.65 40.8L52.65 40.8Q52.65 38.62 50.91 37.37Q49.16 36.13 46.05 36.13L46.05 36.13Q42.93 36.13 40.49 37.1Q38.04 38.07 36.4 39.16L36.4 39.16Q35.16 38.23 34.26 36.83Q33.37 35.43 33.37 33.56" fill="#e2231a"/>
</svg>
